<?xml version="1.0" encoding="utf-8"?>
<!-- Generator: Adobe Illustrator 19.1.0, SVG Export Plug-In . SVG Version: 6.00 Build 0)  -->
<svg version="1.1" id="Capa_1" xmlns="http://www.w3.org/2000/svg" xmlns:xlink="http://www.w3.org/1999/xlink" x="0px" y="0px"
	 viewBox="0 0 1475 708" style="enable-background:new 0 0 1475 708;" xml:space="preserve">
<style type="text/css">
	.st0{fill:#A2A0A6;}
	.st1{fill:#1E120D;}
	.st2{fill:#399753;}
	.st3{fill:#F1A21E;}
	.st4{fill:#004C94;}
	.st5{fill:#C9002C;}
	.st6{fill:#6C9B3B;}
	.st7{fill:#DCDEE2;}
</style>
<g>
	<g>
		<path class="st0" d="M165.5,624.1c-6.5,22.5-23.4,35-48.3,35c-33.9,0-51.5-22.8-51.5-67c0-43.6,19.5-67.7,52.9-67.7
			c23.6,0,39.1,12.1,44.2,34.2l-22.7,5.6c-3.2-12.6-11-19.1-22.9-19.1c-17.8,0-26.5,15.6-26.5,47.1c0,30.2,8.3,45,27,45
			c12.1,0,21.6-7.4,25-19.4L165.5,624.1z"/>
		<path class="st0" d="M197.7,609.6c0-20.1,6-29.9,17.9-29.9c12.1,0,17.9,9.8,17.9,29.9c0,20.1-5.8,30-17.9,30
			C203.7,639.6,197.7,629.7,197.7,609.6z M175.2,609.6c0,30.9,15.3,49,40.4,49c25.1,0,40.4-17.9,40.4-49c0-31.1-15.1-49.1-40.4-49.1
			C190.4,560.5,175.2,578.5,175.2,609.6z"/>
		<path class="st0" d="M273.1,562.3h20.5v11c7.4-8.4,16-12.8,26.6-12.8c11.2,0,18.6,4.5,23.3,14.1c9.6-9.5,18.6-14.1,30.5-14.1
			c15.7,0,25.3,9.2,25.3,23.9v72.4h-22.4v-65.2c0-8.2-3.6-12.8-10.3-12.8c-6.9,0-13.6,3.3-19.9,9.7v68.3H325v-62.7
			c0-10.3-2.9-15.2-9.7-15.2c-7.4,0-14.6,3.4-20,9.7v68.1h-22.1V562.3z"/>
		<path class="st0" d="M444.4,632.6v-45c5.6-5.4,10.6-8.3,16.8-8.3c12.5,0,20.1,10.7,20.1,30.4c0,19.9-7.8,30.9-19.9,30.9
			C455.3,640.5,450.2,637.8,444.4,632.6z M444.6,647.9c6.5,7.5,13.4,10.7,22.9,10.7c20.4,0,36.1-18.5,36.1-49
			c0-29.4-15.3-49.1-36.8-49.1c-10.5,0-17.7,3.6-25.6,12.1l-2.3-10.3h-16.2V691h21.9V647.9z"/>
		<path class="st0" d="M547,658.6c-17.5,0-26.3-10.1-26.3-30.5v-65.8H543v61.3c0,11.5,2.7,17,10.8,17c6.7,0,13.3-3.6,20.9-10.6
			v-67.7h22.1v94.6h-20.5v-11C565.9,654.3,557.4,658.6,547,658.6z"/>
		<path class="st1" d="M639.4,617.4c6.8,13.9,14.9,20,26.6,20c13.3,0,21.2-6.7,21.2-16.6c0-8.9-5.9-13.3-19.4-18.4
			c-11.7-4.3-22.5-7.9-31.1-13.5c-9.9-6.3-15.4-16.4-15.4-28.8c0-20.7,16.8-35.8,42.7-35.8c22.3,0,37.2,9.8,44,28.8l-22.2,8.1
			c-5.4-11.5-12.4-16.8-23.6-16.8c-10.8,0-17.3,5.4-17.3,13.9c0,12.2,12.8,14.4,33.4,23.2c21.7,9.2,32.5,17.7,32.5,38.2
			c0,23.8-16.3,38.9-44.4,38.9c-24.1,0-41.1-10.8-49.5-31.3L639.4,617.4z"/>
		<path class="st1" d="M745.2,609.6c0-20.1,6-29.9,17.9-29.9c12.1,0,17.9,9.8,17.9,29.9c0,20.1-5.8,30-17.9,30
			C751.2,639.6,745.2,629.7,745.2,609.6z M722.7,609.6c0,30.9,15.3,49,40.4,49c25.2,0,40.5-17.9,40.5-49c0-31.1-15.1-49.1-40.5-49.1
			C737.8,560.5,722.7,578.5,722.7,609.6z"/>
		<path class="st1" d="M820.6,525.9H843v131h-22.3V525.9z"/>
		<path class="st1" d="M892.6,658.6c-17.5,0-26.3-10.1-26.3-30.5v-65.8h22.4v61.3c0,11.5,2.7,17,10.8,17c6.7,0,13.3-3.6,20.9-10.6
			v-67.7h22.1v94.6H922v-11C911.6,654.3,903.1,658.6,892.6,658.6z"/>
		<path class="st1" d="M1037.2,634.6c-6.5,15.7-19.3,24-37.1,24c-26.7,0-40.7-16.8-40.7-49.1c0-30.6,15.7-48.8,40.7-48.8
			c17.7,0,30.7,8.6,36.2,24.4l-18.8,8.1c-3.3-9.6-8.1-14.2-16-14.2c-13.7,0-19.8,10.1-19.8,31.7c0,19.5,6,28.9,18.4,28.9
			c8.8,0,15.1-4.5,19.8-14.2L1037.2,634.6z"/>
		<path class="st1" d="M1053.6,562.3h22.4v94.6h-22.4V562.3z M1053.6,525.9h22.4v21h-22.4V525.9z"/>
		<path class="st1" d="M1115.4,609.6c0-20.1,6-29.9,17.9-29.9c12.1,0,17.9,9.8,17.9,29.9c0,20.1-5.8,30-17.9,30
			C1121.4,639.6,1115.4,629.7,1115.4,609.6z M1092.9,609.6c0,30.9,15.3,49,40.4,49c25.1,0,40.4-17.9,40.4-49
			c0-31.1-15.1-49.1-40.4-49.1C1108,560.5,1092.9,578.5,1092.9,609.6z"/>
		<path class="st1" d="M1190.8,562.3h20.5v11.1c10.5-8.4,18.8-12.9,29.2-12.9c17.5,0,26.5,10.2,26.5,30.6v65.8h-22.3v-61.4
			c0-11.6-2.7-16.8-10.8-16.8c-6.7,0-13.3,3.4-20.9,10.5v67.8h-22.2V562.3z"/>
		<path class="st1" d="M1305.7,597.4c0.9-12.9,7.2-20.1,17.3-20.1c10.7,0,17.2,7.4,17.2,20.1H1305.7z M1361.1,638.3l-16.4-10.1
			c-5.2,8.3-10.8,12.1-19.3,12.1c-13.1,0-19.8-9-20-26.8h56.6c0-1.6,0.2-3.3,0.2-4.9c0-30.8-14.6-48.1-39.2-48.1
			c-24.5,0-39.7,17.9-39.7,49.4c0,31,15,48.7,40,48.7C1340.8,658.6,1353.9,651.6,1361.1,638.3z"/>
		<path class="st1" d="M1386.5,627.9c7,9,13.9,13.6,21.7,13.6c8.3,0,13.2-4.2,13.2-10.5c0-7.8-6.7-9.6-17.3-13.5
			c-19.5-7.4-29.6-13.5-29.6-29.3c0-15.7,12.8-27.6,32.5-27.6c13.2,0,23.3,4.7,32,14.5l-14.1,12.3c-6-6.3-11.9-9.6-18.4-9.6
			c-7.8,0-12.1,3.8-12.1,9.4c0,6.3,7.8,7.9,21.1,13.2c17.4,6.7,26,13.2,26,29.6c0,17.5-13,29-33,29c-15.7,0-27.1-5.9-37-19
			L1386.5,627.9z"/>
	</g>
	<path class="st2" d="M742.6,146C742.6,146,742.6,146,742.6,146C742.6,146,742.6,146,742.6,146L742.6,146z"/>
	<path class="st3" d="M744.6,159.7c-1.3-2.2-5-9.4-5.6-10.8c-7.9,5.7-15.9,8.9-23.7,7.1c-2.9-0.6-6.4-3.3-10.2-4.9
		c-7.1-3-17.1-4.8-23.7-5.2c2.4,7.6,6.3,14.4,11.8,19.9c9.8,10,22.9,13.4,36.9,10.2C733.6,171.1,740.3,163.6,744.6,159.7z"/>
	<path class="st3" d="M783.7,31.1C747-6.3,683.6,51.3,678.5,116.8c1.5,0,17.4,2,18.9,2.3c2.5-51.3,50.2-93.7,70.3-73.3
		c16.5,16.8,6.3,51.3-1.2,67.9c-4.8,10.7,4.6,26.3,7.6,30.7C798.2,112.4,810.2,58,783.7,31.1z"/>
	<path class="st4" d="M859.6,191c-15.1-35.9-49.2-54.7-83.7-44.1c4.2,5.6,9.6,10.4,16.9,16.4c8.2,6.6,17.4,7.1,24.7,13.3
		c29.5,25.2,30.3,90.3-4.7,124.6c-34.5,33.9-74.5,11.9-80.9-37.3c-7,3.7-13.9,6.2-21,7.9c10.1,70.1,74.8,96.6,122.9,49.2
		C868.7,286.8,876.4,231,859.6,191z"/>
	<path class="st4" d="M735.8,221c5-15.8,13.9-30.4,25.5-40.6c-5.3-5.2-10.2-11-14.1-16.8c-0.1,0-0.1-0.1-0.1-0.1
		c-19.9,18.2-32.9,46.3-36.4,74.3C718.8,235,729,229.3,735.8,221z"/>
	<path class="st5" d="M766.8,185.5c-0.8-0.6-1.4-1.1-2.3-2c-6.2,5.4-13.3,14.7-17.1,21.6c-5.9,42.1-78.2,57.8-117.2,18.1
		c-32.3-32.9-11.1-81.7,45.4-82c16.7-0.1,32.2,5.1,38.6,9.1c6,3.8,14.7,0.6,23.1-5.7c-0.5-1.3-0.9-2.7-1.3-4
		c-37.5-27.5-94.9-25.1-123.4,2.9c-31.4,30.8-25,71.6,0.7,97.7c37.5,38.2,101.8,38.2,135.6,5C766.4,229,771.8,206.6,766.8,185.5z"/>
	<g>
		<path class="st6" d="M888.6,105.8c-24.1-24.5-57-37-85.9-37.3c0.4,7-0.1,14.5-1.1,20.8c23.3-0.1,51.1,10.6,69.5,29.4
			c15.5,15.8,27.5,41.2,10.9,57.4c-5.1,5-12,8.3-19.9,9.9c3.5,7.4,6,15.3,7.7,23.4C919.2,196.5,927.9,145.7,888.6,105.8z"/>
		<path class="st6" d="M821.8,187.5c-1.2-1.6-3.2-5.4-12-9.2c-22.6-9.7-47.5-31.9-49.4-57.5c-0.3-4.1,0.1-9.5,4.5-16.5
			c4-6.4,6.9-21.2,7-30.7c-28.9,11-47.2,43.4-24,83.2c15.2,26.1,48,48.7,84.3,54.1C830.6,202.7,825.7,192.8,821.8,187.5z"/>
	</g>
	<path class="st7" d="M917.3,410.5c0-10.2-32.3-17.9-76.3-17.9c-22.9,0-44.4,1.8-61,4.8c-3.6-4.7-14.9-9.2-38.2-11.2
		c-21-6.9-42.7-12.6-53.7-12.6c-6,0-11.3,1.5-11.3,4c0,2,4.5,5,11.7,8.4c-45.7,2.9-98.8,13.1-98.8,26.3c0,9.3,30.3,15.4,67.6,15.4
		c30.3,0,57.4-2.8,78.4-7c30.9,15.4,89.9,33.7,116.5,33.7c6.9,0,18.4-1.4,18.4-5.7c0-4.4-11.5-11.3-27.9-18.5
		C890.3,428,917.3,418.1,917.3,410.5z M739.7,393.4c4.5,1.5,8.8,3.2,13.9,5.2c-7.2-2.2-12.6-3.9-17.7-5.6
		C737.3,393.2,738.5,393.3,739.7,393.4z M767.6,414.1c7,2,14.5,4.4,22,7C778.3,419.5,769.7,417.1,767.6,414.1z M657.9,418.8
		c-26.3,0-43-3.1-43-7.5c0-7.3,42.7-17.9,88.6-19.1c6.6,2.5,14,5.1,21.6,7.6c-5.8,0.9-9,2.7-9,5.5c0,2.2,2.4,4.8,6.5,7.8
		C703.8,416.4,680.1,418.8,657.9,418.8z M797.6,429.5c5.5,0.4,11.2,0.7,17.1,0.9c10.1,4.2,18.4,8.1,22.5,11.1
		C825,438.5,810.9,434.2,797.6,429.5z M825.5,423.1c-10.5-4-21.8-7.9-33-11.4c1.6-0.7,2.4-1.5,2.4-2.2c0-1.3-3.5-3.5-9.2-6.3
		c12.7-2.7,30.8-4.5,51.5-4.5c32.6,0,57.6,4.7,57.6,10.8C894.9,416.5,860.6,422.9,825.5,423.1z"/>
</g>
</svg>
